<?xml version="1.0" standalone="no"?>
<!DOCTYPE svg PUBLIC "-//W3C//DTD SVG 20010904//EN"
 "http://www.w3.org/TR/2001/REC-SVG-20010904/DTD/svg10.dtd">
<svg version="1.0" xmlns="http://www.w3.org/2000/svg"
 width="263.000000pt" height="404.000000pt" viewBox="0 0 263.000000 404.000000"
 preserveAspectRatio="xMidYMid meet">

<g transform="translate(0.000000,404.000000) scale(0.100000,-0.100000)"
fill="#000000" stroke="none">
<path d="M1855 3924 c-157 -35 -326 -134 -408 -240 -51 -65 -55 -86 -24 -132
68 -104 217 -214 345 -256 308 -102 626 -21 820 208 76 90 55 162 -79 272 -67
55 -162 105 -254 134 -93 30 -298 37 -400 14z m-200 -502 c-2 -3 -29 14 -60
38 l-55 42 0 99 0 98 58 41 57 41 3 -177 c1 -97 0 -179 -3 -182z m808 309 l47
-35 0 -96 0 -95 -50 -40 c-28 -22 -55 -41 -60 -43 -6 -2 -10 64 -10 178 0 142
3 180 13 174 6 -4 33 -23 60 -43z m-685 -99 c5 -31 49 -31 54 1 2 12 10 22 18
22 8 0 16 -10 18 -22 5 -35 52 -32 52 2 0 32 27 34 32 3 2 -17 10 -23 28 -23
18 0 26 6 28 23 2 12 10 22 17 22 7 0 15 -10 17 -22 2 -17 10 -23 28 -23 18 0
26 6 28 23 5 31 32 29 32 -3 0 -34 47 -37 52 -2 2 12 10 22 18 22 8 0 16 -10
18 -22 5 -32 49 -32 54 -1 2 12 9 23 16 26 9 3 12 -14 12 -63 0 -49 -3 -66
-12 -63 -7 3 -14 14 -16 26 -5 31 -49 31 -54 0 -2 -13 -10 -23 -18 -23 -8 0
-16 10 -18 23 -5 31 -49 31 -54 0 -4 -30 -26 -34 -30 -6 -4 33 -55 39 -60 7
-5 -33 -28 -36 -28 -4 0 23 -4 26 -27 23 -20 -2 -29 -9 -31 -26 -4 -28 -26
-24 -30 6 -5 31 -49 31 -54 0 -2 -13 -10 -23 -18 -23 -8 0 -16 10 -18 23 -2
16 -10 22 -27 22 -17 0 -25 -6 -27 -22 -2 -13 -10 -23 -18 -23 -11 0 -16 13
-18 49 -2 27 -1 55 2 63 8 21 30 11 34 -15z"/>
<path d="M1230 3073 c-338 -35 -669 -206 -870 -449 -228 -276 -350 -648 -350
-1069 0 -762 343 -1314 931 -1500 157 -49 204 -55 458 -55 219 0 246 2 333 24
225 57 412 168 591 351 66 67 137 169 162 233 14 34 15 45 5 58 -25 30 -52 11
-99 -69 -203 -343 -632 -546 -1051 -498 -485 57 -786 405 -885 1026 -22 135
-31 552 -16 710 42 435 191 775 421 962 86 70 243 147 355 175 76 19 116 22
265 22 183 -1 270 -14 414 -64 199 -68 366 -232 366 -358 0 -57 -10 -73 -91
-159 -77 -79 -99 -121 -99 -185 1 -113 90 -198 207 -198 135 0 223 118 224
301 0 151 -58 291 -172 413 -206 220 -535 339 -927 334 -75 0 -153 -3 -172 -5z"/>
</g>
</svg>
